<?xml version="1.0" encoding="UTF-8" standalone="no"?>
<!-- Created with Inkscape (http://www.inkscape.org/) -->

<svg
   width="79.524277mm"
   height="27.100142mm"
   viewBox="0 0 79.524277 27.100142"
   version="1.1"
   id="svg5"
   inkscape:version="1.4 (1:1.4+202410161351+e7c3feb100)"
   sodipodi:docname="Simpl-Automation-Logo-Color.svg"
   xml:space="preserve"
   inkscape:export-filename="Simpl-Automation-Logo-Color-240.png"
   inkscape:export-xdpi="76.65583"
   inkscape:export-ydpi="76.65583"
   xmlns:inkscape="http://www.inkscape.org/namespaces/inkscape"
   xmlns:sodipodi="http://sodipodi.sourceforge.net/DTD/sodipodi-0.dtd"
   xmlns="http://www.w3.org/2000/svg"
   xmlns:svg="http://www.w3.org/2000/svg"><sodipodi:namedview
     id="namedview7"
     pagecolor="#ffffff"
     bordercolor="#000000"
     borderopacity="0.25"
     inkscape:showpageshadow="2"
     inkscape:pageopacity="0.0"
     inkscape:pagecheckerboard="0"
     inkscape:deskcolor="#d1d1d1"
     inkscape:document-units="mm"
     showgrid="false"
     inkscape:zoom="2.8284271"
     inkscape:cx="154.32606"
     inkscape:cy="66.821591"
     inkscape:window-width="1920"
     inkscape:window-height="1000"
     inkscape:window-x="0"
     inkscape:window-y="44"
     inkscape:window-maximized="1"
     inkscape:current-layer="layer3"
     showguides="true" /><defs
     id="defs2" /><g
     inkscape:groupmode="layer"
     id="layer3"
     inkscape:label="Logos"
     style="display:inline"
     transform="translate(-196.15654,-24.34359)"><g
       id="g42"
       inkscape:label="Simpl"
       style="display:inline"
       transform="translate(283.89978,-42.175345)"
       inkscape:export-filename="../../Downloads/simpl_logo.png"
       inkscape:export-xdpi="96"
       inkscape:export-ydpi="96"><g
         id="g41"
         inkscape:label="impl"
         style="fill:#2d55b7;fill-opacity:1"><path
           id="path38"
           style="color:#000000;font-size:20.4611px;-inkscape-font-specification:'Source Sans 3, ';letter-spacing:0.264583px;fill:#2f577d;fill-opacity:1;stroke:none;-inkscape-stroke:none"
           d="m -12.021317,72.482397 v 13.021428 c 0,0.775661 0.129918,1.443544 0.515731,1.953369 0.385814,0.509826 1.026136,0.777214 1.765267,0.777214 0.459219,0 0.845121,-0.06206 1.167887,-0.208773 l 0.353467,-0.160197 -0.386539,-2.178162 -0.519349,0.129191 c -0.104011,0.026 -0.126789,0.0217 -0.187585,0.02119 -0.0045,-0.01003 -0.03152,-0.04335 -0.03152,-0.21084 v -13.14442 z"
           inkscape:label="l"
           sodipodi:nodetypes="cssscccccscc" /><path
           id="path39"
           style="color:#000000;font-size:20.4611px;-inkscape-font-specification:'Source Sans 3, ';letter-spacing:0.264583px;display:inline;fill:#2f577d;fill-opacity:1;stroke:none;-inkscape-stroke:none"
           d="m -18.374934,76.859391 c -1.068254,0 -1.999864,0.489566 -2.830318,1.072286 l -0.103353,-0.826306 h -2.332157 l -2e-6,16.432592 h 0.500227 2.177645 l 2e-6,-5.155244 -0.01964,-0.834058 c 0.7223,0.428647 1.462454,0.746208 2.240174,0.746208 2.562468,0 4.797123,-2.285067 4.797123,-5.861141 0,-1.618761 -0.354505,-2.993898 -1.105359,-3.994071 -0.750854,-1.000173 -1.916195,-1.580266 -3.324345,-1.580266 z m -0.429948,2.412256 c 0.810774,0 1.260809,0.26915 1.597835,0.784965 0.337027,0.515816 0.521416,1.338524 0.521416,2.377116 0,1.145719 -0.284115,2.026967 -0.709001,2.597774 -0.424887,0.570808 -0.968166,0.851112 -1.634526,0.851111 -0.465699,0 -1.187387,-0.282835 -1.933732,-0.847493 v -4.628658 c 0.847105,-0.721622 1.553124,-1.134815 2.158008,-1.134815 z"
           inkscape:label="p"
           sodipodi:nodetypes="sccccccccssssssssssccs" /><path
           id="path40"
           style="color:#000000;font-size:20.4611px;-inkscape-font-specification:'Source Sans 3, ';letter-spacing:0.264583px;fill:#2f577d;fill-opacity:1;stroke:none;-inkscape-stroke:none"
           d="m -35.683438,76.859391 c -1.070361,0 -1.954811,0.560251 -2.740401,1.242302 l -0.101286,-0.996322 h -2.344043 v 10.943518 h 0.500228 2.177645 v -7.478613 c 0.815421,-0.86366 1.517885,-1.257804 1.99626,-1.257804 0.529455,0 0.789144,0.124811 0.999939,0.421679 0.210794,0.296869 0.363285,0.860531 0.363285,1.738395 v 6.576343 h 2.677356 v -7.48223 c 0.812192,-0.864427 1.46853,-1.254187 1.996261,-1.254187 0.517505,0 0.770897,0.122739 0.980302,0.420129 0.209405,0.29739 0.361735,0.862081 0.361735,1.739945 v 6.576343 h 2.677356 v -6.800618 c 0,-1.333102 -0.250985,-2.417476 -0.849561,-3.199288 -0.598574,-0.781812 -1.546371,-1.189592 -2.679423,-1.189592 -1.233258,0 -2.239624,0.738491 -3.191536,1.675867 -0.213598,-0.387462 -0.38641,-0.810649 -0.742074,-1.072286 -0.542878,-0.399359 -1.246155,-0.603581 -2.082043,-0.603581 z"
           inkscape:label="m" /><path
           id="path41"
           style="color:#000000;font-size:20.4611px;-inkscape-font-specification:'Source Sans 3, ';letter-spacing:0.264583px;fill:#2f577d;fill-opacity:1;stroke:none;-inkscape-stroke:none"
           d="m -44.8281,72.849817 c -0.883919,0 -1.625223,0.710733 -1.625223,1.60507 0,0.453768 0.169207,0.87637 0.470772,1.166337 0.301566,0.289967 0.7177,0.437183 1.154451,0.437183 0.436752,0 0.854437,-0.147216 1.156002,-0.437183 0.301566,-0.289967 0.469222,-0.712568 0.469222,-1.166337 0,-0.894337 -0.741304,-1.60507 -1.625224,-1.60507 z m -1.337903,4.255554 v 10.943518 h 0.500228 2.177645 V 77.105371 Z"
           inkscape:label="i" /></g><path
         id="path42"
         style="color:#000000;font-size:20.4611px;letter-spacing:0.264583px;fill:#0c1e2e;fill-opacity:1;stroke:none;-inkscape-stroke:none"
         d="m -53.433776,71.732572 c -2.957222,0 -5.22242,1.910444 -5.22242,4.490166 0,1.212008 0.464163,2.168487 1.117244,2.863391 0.653082,0.694904 1.477254,1.146181 2.234489,1.470711 l 2.152324,0.939478 c 0.707741,0.319706 1.293064,0.594969 1.654162,0.912089 0.362442,0.318297 0.54467,0.63755 0.54467,1.28881 0,0.600964 -0.215777,1.046654 -0.642338,1.386995 -0.426562,0.340342 -1.095647,0.566374 -1.998328,0.566374 -1.462281,0 -2.87314,-0.63037 -3.857129,-1.65623 l -0.378788,-0.396875 -1.734778,1.992127 0.309025,0.330212 c 1.395528,1.493459 3.351738,2.404505 5.638416,2.404505 1.693193,0 3.097949,-0.507661 4.081921,-1.373043 0.983972,-0.865382 1.531173,-2.087257 1.531173,-3.414262 0,-1.21007 -0.373908,-2.167251 -0.999939,-2.884579 -0.626032,-0.717328 -1.471219,-1.194915 -2.40037,-1.588016 h 0.0041 l -2.134754,-0.917774 h -0.0021 c -0.596483,-0.252359 -1.181283,-0.508295 -1.578198,-0.826306 -0.396915,-0.31801 -0.61495,-0.641326 -0.61495,-1.212846 0,-0.538033 0.198601,-0.917958 0.577743,-1.212846 0.379141,-0.294887 0.966267,-0.488342 1.718758,-0.488342 1.192042,0 2.216689,0.486904 3.088184,1.25212 l 0.384472,0.337447 1.652613,-1.982308 -0.322461,-0.324011 c -1.144474,-1.144474 -2.830864,-1.956987 -4.802808,-1.956987 z"
         inkscape:label="S" /></g><g
       id="g44"
       inkscape:label="Cress"
       transform="translate(187.72192,-192.37514)"><path
         id="path43"
         style="fill:#2f577d;fill-opacity:1;stroke-width:0.575169"
         d="m 25.957589,222.07008 a 8.158,8.158 0 0 0 -7.133932,4.20233 5.4825001,5.4825001 0 0 1 3.789433,-1.52652 5.4825001,5.4825001 0 0 1 5.482869,5.48235 5.4825001,5.4825001 0 0 1 -5.482869,5.48235 5.4825001,5.4825001 0 0 1 -3.789433,-1.52704 8.158,8.158 0 0 0 7.133932,4.20285 8.158,8.158 0 0 0 8.158158,-8.15816 8.158,8.158 0 0 0 -8.158158,-8.15816 z"
         inkscape:label="Cres S" /><path
         id="path44"
         style="fill:#0c1e2e;fill-opacity:1;stroke-width:0.95247"
         d="m 21.944397,216.71873 a 13.5095,13.5095 0 0 0 -13.5097697,13.50977 13.5095,13.5095 0 0 0 13.5097697,13.50925 13.5095,13.5095 0 0 0 10.114628,-4.56509 10.834,10.834 0 0 1 -6.101436,1.8898 10.834,10.834 0 0 1 -10.833964,-10.83396 10.834,10.834 0 0 1 10.833964,-10.83397 10.834,10.834 0 0 1 6.106087,1.88464 13.5095,13.5095 0 0 0 -10.119279,-4.56044 z"
         inkscape:label="Cres L" /></g><path
       d="m 216.68932,51.007351 c 0.15657,-0.476244 0.29357,-0.945965 0.42405,-1.441781 h 0.0261 c 0.137,0.495816 0.274,0.965537 0.43058,1.441781 l 0.20224,0.65239 h -1.28521 z m -1.30478,2.394272 h 0.55453 l 0.41101,-1.30478 h 1.55921 l 0.40448,1.30478 h 0.58063 l -1.44831,-4.279679 h -0.61325 z m 4.95163,0.07829 c 0.4371,0 0.75025,-0.228337 1.04382,-0.574104 h 0.0196 l 0.0457,0.495817 h 0.44363 v -3.170616 h -0.53496 v 2.250746 c -0.3001,0.371862 -0.52844,0.53496 -0.85464,0.53496 -0.41753,0 -0.59367,-0.254432 -0.59367,-0.848107 v -1.937599 h -0.54148 v 2.009362 c 0,0.808963 0.3001,1.239541 0.97206,1.239541 z m 3.62075,-0.01957 c 0.21529,0 0.42406,-0.05219 0.59368,-0.137002 l -0.11091,-0.378386 c -0.12395,0.05871 -0.24791,0.07829 -0.35881,0.07829 -0.36534,0 -0.4893,-0.221813 -0.4893,-0.606723 v -1.748405 h 0.85464 v -0.437102 h -0.85464 v -1.017728 h -0.45014 l -0.0652,1.017728 -0.49582,0.03262 v 0.404482 h 0.46972 v 1.735357 c 0,0.632818 0.22834,1.056872 0.90682,1.056872 z m 2.34859,0.01957 c 0.77635,0 1.46788,-0.606723 1.46788,-1.657071 0,-1.063396 -0.69153,-1.670118 -1.46788,-1.670118 -0.77634,0 -1.46788,0.606722 -1.46788,1.670118 0,1.050348 0.69154,1.657071 1.46788,1.657071 z m 0,-0.443626 c -0.54148,0 -0.91334,-0.489292 -0.91334,-1.213445 0,-0.730677 0.37186,-1.226493 0.91334,-1.226493 0.54801,0 0.91335,0.495816 0.91335,1.226493 0,0.724153 -0.36534,1.213445 -0.91335,1.213445 z m 2.30294,0.365339 h 0.53496 V 51.10521 c 0.29357,-0.326195 0.56105,-0.489293 0.79591,-0.489293 0.40448,0 0.59368,0.254433 0.59368,0.848107 v 1.937599 h 0.53496 V 51.10521 c 0.29357,-0.326195 0.548,-0.489293 0.79591,-0.489293 0.39796,0 0.58715,0.254433 0.58715,0.848107 v 1.937599 h 0.53496 v -2.009361 c 0,-0.808964 -0.31314,-1.239541 -0.96553,-1.239541 -0.38491,0 -0.71111,0.247908 -1.04383,0.606722 -0.13048,-0.378386 -0.39143,-0.606722 -0.8742,-0.606722 -0.37839,0 -0.71111,0.23486 -0.98511,0.534959 h -0.0196 l -0.0457,-0.456673 h -0.44362 z m 6.13898,0.07829 c 0.39795,0 0.7372,-0.202241 1.05034,-0.456673 h 0.0196 l 0.0457,0.378386 h 0.44363 v -1.944122 c 0,-0.789392 -0.33272,-1.30478 -1.10254,-1.30478 -0.50886,0 -0.95249,0.215288 -1.24607,0.411005 l 0.20877,0.365339 c 0.24791,-0.156574 0.58063,-0.326195 0.94597,-0.326195 0.51538,0 0.65239,0.38491 0.65891,0.782868 -1.35697,0.150049 -1.95717,0.482768 -1.95717,1.193873 0,0.574104 0.40448,0.900299 0.93292,0.900299 z m 0.15005,-0.443626 c -0.30663,0 -0.55454,-0.137002 -0.55454,-0.489292 0,-0.411006 0.35882,-0.65239 1.42874,-0.776344 v 0.854631 c -0.30662,0.274003 -0.56758,0.411005 -0.8742,0.411005 z m 3.31412,0.424054 c 0.21529,0 0.42406,-0.05219 0.59368,-0.137002 l -0.11091,-0.378386 c -0.12395,0.05871 -0.24791,0.07829 -0.35881,0.07829 -0.36534,0 -0.48929,-0.221813 -0.48929,-0.606723 v -1.748405 h 0.85463 v -0.437102 h -0.85463 v -1.017728 h -0.45015 l -0.0652,1.017728 -0.49582,0.03262 v 0.404482 h 0.46972 v 1.735357 c 0,0.632818 0.22834,1.056872 0.90682,1.056872 z m 1.20692,-0.05871 h 0.53496 v -3.170616 h -0.53496 z m 0.26748,-3.823006 c 0.20877,0 0.35882,-0.137002 0.35882,-0.35229 0,-0.208765 -0.15005,-0.352291 -0.35882,-0.352291 -0.20876,0 -0.35881,0.143526 -0.35881,0.352291 0,0.215288 0.15005,0.35229 0.35881,0.35229 z m 2.57041,3.901293 c 0.77634,0 1.46787,-0.606723 1.46787,-1.657071 0,-1.063396 -0.69153,-1.670118 -1.46787,-1.670118 -0.77635,0 -1.46788,0.606722 -1.46788,1.670118 0,1.050348 0.69153,1.657071 1.46788,1.657071 z m 0,-0.443626 c -0.54149,0 -0.91335,-0.489292 -0.91335,-1.213445 0,-0.730677 0.37186,-1.226493 0.91335,-1.226493 0.548,0 0.91334,0.495816 0.91334,1.226493 0,0.724153 -0.36534,1.213445 -0.91334,1.213445 z m 2.30293,0.365339 h 0.53496 V 51.10521 c 0.31967,-0.319671 0.54149,-0.489293 0.86768,-0.489293 0.41753,0 0.6002,0.254433 0.6002,0.848107 v 1.937599 h 0.53496 v -2.009361 c 0,-0.808964 -0.3001,-1.239541 -0.96554,-1.239541 -0.4371,0 -0.76329,0.23486 -1.06339,0.534959 h -0.0196 l -0.0457,-0.456673 h -0.44363 z"
       id="text44"
       style="font-size:6.5239px;font-family:'Source Sans 3';-inkscape-font-specification:'Source Sans 3, ';text-align:center;text-anchor:middle;fill:#0c1e2e;stroke:#0c1e2e;stroke-width:0.292242;paint-order:stroke fill markers"
       transform="scale(1.0425419,0.95919406)"
       aria-label="Automation" /></g></svg>
